<!-- google.svg -->
<svg xmlns="http://www.w3.org/2000/svg"
     viewBox="0 0 48 48"
     width="48"
     height="48"
     role="img"
     aria-label="Google logo">
  <title>Google</title>
  <!-- Blue -->
  <path fill="#4285F4" d="M24 9.5c3.5 0 6.3 1.2 8.2 2.3l6-6C34.9 3 29.8 1.5 24 1.5 14 1.5 5.8 7.8 2.2 16.6l7.9 6.1C11.9 15.1 17.5 9.5 24 9.5z"/>
  <!-- Green -->
  <path fill="#34A853" d="M46.5 24.5c0-1.6-.1-2.5-.4-3.6H24v7.2h12.8c-.5 3-2.9 7-8.8 9.3l6 4.6c5.2-4.8 8.5-11.8 8.5-17.5z"/>
  <!-- Yellow -->
  <path fill="#FBBC05" d="M10.1 29.9c-.6-1.8-.9-3.7-.9-5.6 0-1.9.3-3.8.9-5.6l-7.9-6.1C.6 14.9 0 19.3 0 24c0 4.7.6 9.1 2.1 13.1l7.9-6.1z"/>
  <!-- Red -->
  <path fill="#EA4335" d="M24 46.5c6.4 0 11.8-2.1 15.7-5.7l-7.9-6.1c-2.1 1.4-4.8 2.4-7.8 2.4-6.5 0-12-5.6-13.9-12.9l-7.9 6.1C5.8 40.2 14 46.5 24 46.5z"/>
</svg>
