<svg xmlns="http://www.w3.org/2000/svg" viewBox="0 0 400 150">
  <g fill="#000000">
    <path d="M123.6 57.6l-50-38.4c-2.4-1.8-5.6-1.8-8 0L9.6 57.6c-2.4 1.8-4 4.8-4 7.2v64c0 4.8 4 8.8 8.8 8.8h112c4.8 0 8.8-4 8.8-8.8v-64c0-2.4-1.6-5.4-4-7.2zm-28 65.6h-56v-40h56v40zM72 80c0 4.4-3.6 8-8 8H56c-4.4 0-8-3.6-8-8v-16c0-4.4 3.6-8 8-8h8c4.4 0 8 3.6 8 8v16z"/>
    
    <text x="140" y="65" font-family="'Times New Roman', Times, serif" font-size="45" font-weight="bold" letter-spacing="0">ADZANI</text>
    
    <text x="140" y="110" font-family="'Times New Roman', Times, serif" font-size="35" font-weight="bold" letter-spacing="0">WAREHOUSES</text>
  </g>
</svg>